<?xml version="1.0" encoding="UTF-8"?>
<svg id="Calque_1" data-name="Calque 1" xmlns="http://www.w3.org/2000/svg" viewBox="0 0 1038.5106 595.2756">
  <defs>
    <style>
      .cls-1 {
        letter-spacing: -.0176em;
      }

      .cls-2, .cls-3 {
        fill: #e10600;
      }

      .cls-4 {
        font-size: 20px;
      }

      .cls-4, .cls-5, .cls-6 {
        fill: #010200;
      }

      .cls-4, .cls-6 {
        font-family: Helvetica, Helvetica;
        stroke: #222221;
        stroke-miterlimit: 10;
        stroke-width: .75px;
      }

      .cls-7 {
        letter-spacing: -.0293em;
      }

      .cls-3 {
        fill-rule: evenodd;
      }

      .cls-8 {
        letter-spacing: -.0366em;
      }

      .cls-9 {
        fill: #222221;
        font-family: SegoeUI, 'Segoe UI';
        font-size: 17px;
      }

      .cls-10 {
        fill: #100c00;
      }

      .cls-11 {
        letter-spacing: -.0176em;
      }

      .cls-12 {
        letter-spacing: -.0977em;
      }

      .cls-6 {
        font-size: 28.872px;
      }
    </style>
  </defs>
  <g>
    <g>
      <polygon class="cls-10" points="72.908 262.7613 145.7757 262.7613 131.222 275.5904 131.222 313.7961 124.9554 313.7961 124.9554 277.2225 102.4101 277.2225 102.4101 313.7961 96.5116 313.7961 96.5116 276.6013 72.908 276.6013 72.908 337.9937 94.2965 357.8099 145.6744 357.8099 112.5252 388.3869 72.908 351.9571 72.908 400.1192 86.3453 412.4636 112.3932 388.4305 138.4744 412.4686 138.5771 412.4686 154.8227 397.2379 154.8227 349.2811 154.8227 218.7476 124.9554 218.7476 124.9554 203.4796 102.4101 184.7818 102.4101 218.7476 96.5116 218.7476 96.5116 179.813 84.0202 170.1885 154.8227 170.1885 154.8227 144.7961 133.1692 123.4894 72.908 123.4894 72.908 262.7613"/>
      <polygon class="cls-2" points="86.3453 412.4636 72.908 424.8615 72.908 469.1104 112.3932 432.6804 154.8227 471.7862 154.8227 427.5362 138.4744 412.4686 112.3932 388.4305 86.3453 412.4636"/>
    </g>
    <text class="cls-6" transform="translate(50.4971 452.7402) rotate(-90)"><tspan x="0" y="0">ONE-S</tspan><tspan class="cls-11" x="91.4375" y="0">T</tspan><tspan x="108.5654" y="0">O</tspan><tspan class="cls-11" x="131.0234" y="0">P</tspan><tspan x="149.7734" y="0" xml:space="preserve"> SHOPPING</tspan></text>
  </g>
  <g>
    <g>
      <text class="cls-4" transform="translate(286.7305 216.5201)"><tspan x="0" y="0">SALE OF I</tspan><tspan class="cls-1" x="95.5859" y="0">T</tspan><tspan x="-12.3926" y="22">EQUIPMENTS</tspan></text>
      <g>
        <g>
          <polygon id="Fill-1" class="cls-3" points="334.9873 148.347 346.6739 148.347 348.2242 152.5613 333.4378 152.5613 334.9873 148.347"/>
          <path class="cls-2" d="m349.2891,153.3043h-16.916l2.0958-5.7002h12.7233l2.0969,5.7002Zm-14.7865-1.486h12.6566l-1.0036-2.7283h-10.6498l-1.0031,2.7283Z"/>
        </g>
        <path class="cls-5" d="m368.8901,124.1813h-56.8956v-35.3328h56.8956v35.3328Zm-55.4096-1.486h53.9236v-32.3608h-53.9236v32.3608Z"/>
        <path class="cls-5" d="m375.8155,131.7021h-70.748v-45.1203c0-2.8981,2.1977-5.2558,4.8991-5.2558h60.9498c2.7013,0,4.899,2.3577,4.899,5.2558v45.1203Zm-69.262-1.486h67.776v-43.6343c0-2.0787-1.5311-3.7699-3.4131-3.7699h-60.9498c-1.882,0-3.4131,1.6911-3.4131,3.7699v43.6343Z"/>
        <path class="cls-5" d="m378.6318,158.5595h-75.6025c-2.3087,0-4.1869-1.9751-4.1869-4.4027,0-1.8336,6.5317-17.7439,6.953-18.588l.2052-.4112h69.6621l.2051.4118c.4212.8461,6.9517,16.767,6.9517,18.5873,0,2.4277-1.8786,4.4027-4.1877,4.4027Zm-71.6981-21.916c-1.3197,2.955-6.5567,16.2604-6.6055,17.517,0,1.399,1.0328,2.913,2.701,2.913h75.6025c1.6688,0,2.7017-1.514,2.7017-2.9168-.0507-1.3027-5.2683-14.5315-6.6042-17.5132h-67.7956Z"/>
        <path class="cls-5" d="m340.4563,182.1545c-32.2541,0-58.4948-26.2407-58.4948-58.4948s26.2407-58.4948,58.4948-58.4948,58.4946,26.2407,58.4946,58.4948-26.2407,58.4948-58.4946,58.4948Zm0-115.4417c-31.4006,0-56.9469,25.5462-56.9469,56.9469s25.5462,56.9469,56.9469,56.9469,56.9467-25.5462,56.9467-56.9469-25.5462-56.9469-56.9467-56.9469Z"/>
      </g>
      <text class="cls-9" transform="translate(224.9756 261.9572) scale(1.14 1)"><tspan class="cls-7" x="0" y="0">R</tspan><tspan x="9.6705" y="0">eliable, high-performance</tspan><tspan x="51.482" y="20">IT equipment</tspan></text>
    </g>
    <g>
      <text class="cls-4" transform="translate(294.8993 468.334)"><tspan x="0" y="0">HOSTING</tspan><tspan x="-8.1689" y="22">&amp; BACK-U</tspan><tspan class="cls-1" x="86.2939" y="22">P</tspan></text>
      <g>
        <g>
          <path class="cls-5" d="m379.9759,358.9126h-80.2902v-18.1536h80.2902v18.1536Zm-78.8661-1.424h77.4421v-15.3056h-77.4421v15.3056Z"/>
          <rect class="cls-5" x="308.4706" y="349.1239" width="41.0196" height="1.424"/>
          <path class="cls-5" d="m358.8213,353.9162c-2.4644,0-4.4692-1.8304-4.4692-4.0803s2.0048-4.0804,4.4692-4.0804,4.4694,1.8305,4.4694,4.0804-2.005,4.0803-4.4694,4.0803Zm0-6.7366c-1.6791,0-3.0452,1.1916-3.0452,2.6563s1.3662,2.6563,3.0452,2.6563,3.0454-1.1916,3.0454-2.6563-1.3662-2.6563-3.0454-2.6563Z"/>
          <path class="cls-5" d="m369.9327,353.9162c-2.4643,0-4.4691-1.8304-4.4691-4.0803s2.0048-4.0804,4.4691-4.0804,4.4692,1.8305,4.4692,4.0804-2.0048,4.0803-4.4692,4.0803Zm0-6.7366c-1.6791,0-3.045,1.1916-3.045,2.6563s1.366,2.6563,3.045,2.6563,3.0452-1.1916,3.0452-2.6563-1.3662-2.6563-3.0452-2.6563Z"/>
          <path class="cls-5" d="m379.9759,377.8989h-80.2902v-18.1537h80.2902v18.1537Zm-78.8661-1.424h77.4421v-15.3056h-77.4421v15.3056Z"/>
          <rect class="cls-5" x="308.4706" y="368.1101" width="41.0196" height="1.424"/>
          <g>
            <path id="Stroke-11" class="cls-3" d="m362.5786,368.822c0,1.8601-1.6822,3.3681-3.7574,3.3681s-3.7572-1.508-3.7572-3.3681,1.6822-3.3683,3.7572-3.3683,3.7574,1.508,3.7574,3.3683Z"/>
            <path class="cls-2" d="m358.8213,372.9022c-2.4644,0-4.4692-1.8304-4.4692-4.0802s2.0048-4.0803,4.4692-4.0803,4.4694,1.8304,4.4694,4.0803-2.005,4.0802-4.4694,4.0802Zm0-6.7365c-1.6791,0-3.0452,1.1916-3.0452,2.6563s1.3662,2.6562,3.0452,2.6562,3.0454-1.1915,3.0454-2.6562-1.3662-2.6563-3.0454-2.6563Z"/>
          </g>
          <g>
            <path id="Stroke-12" class="cls-3" d="m373.69,368.822c0,1.8601-1.682,3.3681-3.7574,3.3681s-3.757-1.508-3.757-3.3681,1.682-3.3683,3.757-3.3683,3.7574,1.508,3.7574,3.3683Z"/>
            <path class="cls-2" d="m369.9327,372.9022c-2.4643,0-4.4691-1.8304-4.4691-4.0802s2.0048-4.0803,4.4691-4.0803,4.4692,1.8304,4.4692,4.0803-2.0048,4.0802-4.4692,4.0802Zm0-6.7365c-1.6791,0-3.045,1.1916-3.045,2.6563s1.366,2.6562,3.045,2.6562,3.0452-1.1915,3.0452-2.6562-1.3662-2.6563-3.0452-2.6563Z"/>
          </g>
          <path class="cls-5" d="m379.9759,396.885h-80.2902v-18.1538h80.2902v18.1538Zm-78.8661-1.424h77.4421v-15.3057h-77.4421v15.3057Z"/>
          <rect class="cls-5" x="308.4706" y="387.0962" width="41.0196" height="1.424"/>
          <path class="cls-5" d="m358.8213,391.8883c-2.4644,0-4.4692-1.8304-4.4692-4.0801s2.0048-4.0803,4.4692-4.0803,4.4694,1.8304,4.4694,4.0803-2.005,4.0801-4.4694,4.0801Zm0-6.7364c-1.6791,0-3.0452,1.1916-3.0452,2.6563s1.3662,2.6561,3.0452,2.6561,3.0454-1.1915,3.0454-2.6561-1.3662-2.6563-3.0454-2.6563Z"/>
          <path class="cls-5" d="m369.9327,391.8883c-2.4643,0-4.4691-1.8304-4.4691-4.0801s2.0048-4.0803,4.4691-4.0803,4.4692,1.8304,4.4692,4.0803-2.0048,4.0801-4.4692,4.0801Zm0-6.7364c-1.6791,0-3.045,1.1916-3.045,2.6563s1.366,2.6561,3.045,2.6561,3.0452-1.1915,3.0452-2.6561-1.3662-2.6563-3.0452-2.6563Z"/>
          <path class="cls-5" d="m350.1549,412.8821h-20.648v-10.7503h20.648v10.7503Zm-19.2239-1.424h17.7999v-7.9022h-17.7999v7.9022Z"/>
          <rect class="cls-5" x="335.0916" y="398.4295" width="1.424" height="4.4143"/>
          <rect class="cls-5" x="343.1461" y="398.4295" width="1.424" height="4.4143"/>
          <rect class="cls-5" x="300.3978" y="404.3881" width="29.8211" height="1.424"/>
          <rect class="cls-5" x="300.3978" y="409.2017" width="29.8211" height="1.424"/>
          <rect class="cls-5" x="349.4428" y="404.3881" width="29.8212" height="1.424"/>
          <rect class="cls-5" x="349.4428" y="409.2017" width="29.8212" height="1.424"/>
        </g>
        <path class="cls-5" d="m340.4561,433.6513c-32.2541,0-58.4948-26.2407-58.4948-58.4948s26.2407-58.4948,58.4948-58.4948,58.4948,26.2407,58.4948,58.4948-26.2407,58.4948-58.4948,58.4948Zm0-115.4417c-31.4006,0-56.9469,25.5462-56.9469,56.9469s25.5462,56.9469,56.9469,56.9469,56.9469-25.5462,56.9469-56.9469-25.5462-56.9469-56.9469-56.9469Z"/>
      </g>
      <text class="cls-9" transform="translate(256.2696 513.7697) scale(1.14 1)"><tspan x="0" y="0">In our highly secure</tspan><tspan x="27.9151" y="20">data centers</tspan></text>
    </g>
  </g>
  <g>
    <g>
      <text class="cls-4" transform="translate(542.1468 220.0303)"><tspan x="0" y="0">MAINTENANCE </tspan><tspan x="-37.6221" y="22">&amp; MANAGED SE</tspan><tspan class="cls-1" x="114.6343" y="22">R</tspan><tspan x="128.7261" y="22">VICES</tspan></text>
      <g>
        <g>
          <path id="Fill-1-2" data-name="Fill-1" class="cls-3" d="m648.9848,152.6734c1.8529,0,3.3505,1.3499,3.3505,3.0064,0,1.6592-1.4976,3.0056-3.3505,3.0056s-3.3515-1.3463-3.3515-3.0056c0-1.6565,1.4986-3.0064,3.3515-3.0064"/>
          <path class="cls-2" d="m648.9849,159.1879c-2.1252,0-3.8541-1.5737-3.8541-3.5081s1.7289-3.509,3.8541-3.509,3.8529,1.5741,3.8529,3.509-1.7284,3.5081-3.8529,3.5081Zm0-6.012c-1.571,0-2.849,1.1232-2.849,2.504s1.278,2.503,2.849,2.503,2.8479-1.1229,2.8479-2.503-1.2775-2.504-2.8479-2.504Z"/>
        </g>
        <path class="cls-5" d="m582.9885,163.7882l-3.3286-2.9898,3.6977-6.9466,2.0966-.9782c1.0443-.4885,1.8703-1.0099,2.5249-1.5941l.0005-.0005,17.8511-15.8865,5.4874,4.9323-17.9349,15.9613c-.7416.6681-1.3568,1.4103-1.8258,2.2041l-1.0864,1.8779-7.4825,3.4201Zm-2.0718-3.2119l2.2531,2.0239,6.5918-3.0129.9282-1.6044c.5233-.8857,1.2031-1.7072,2.023-2.4456l17.0977-15.2162-3.9832-3.5803-17.1796,15.289c-.7284.6499-1.6338,1.2238-2.7682,1.7543l-1.7927.8363-3.1702,5.9558Z"/>
        <path class="cls-5" d="m636.5894,126.1336l-4.2355-3.7948,17.3977-15.5814c.164-.1461.2541-.3357.2548-.5348.0006-.204-.0914-.3998-.2591-.5512-.3722-.334-1.0014-.3352-1.3729-.0017l-17.3189,15.5044-3.7346-3.3507,17.3986-15.5776c.1642-.1473.2551-.3395.2557-.5407.0007-.2043-.0912-.4005-.2585-.5526-.3737-.3325-1.0042-.3339-1.3725.0002l-.0025.0022-17.3151,15.5039-4.3853-3.9301,18.2652-16.3596c1.9871-1.7823,4.6219-2.764,7.4187-2.764,2.7985,0,5.4325.9818,7.4172,2.7645,2.0134,1.8002,3.1226,4.2019,3.1226,6.7618,0,2.5422-1.0983,4.9274-3.0927,6.7161l-18.183,16.286Zm-2.7291-3.7947l2.7291,2.4454,17.5122-15.6851c1.7787-1.5953,2.7585-3.7148,2.7585-5.9677,0-2.2701-.9902-4.4056-2.7883-6.0134-1.8008-1.6176-4.1965-2.5079-6.7465-2.5079-2.5487,0-4.9451.8905-6.7478,2.5074l-17.43,15.6115,2.8794,2.5806,16.6432-14.9022c.7564-.6849,1.9502-.6859,2.7186-.0022.3845.3493.5932.8108.5916,1.303-.0015.4891-.2109.9458-.5899,1.2859l-16.5636,14.83,2.2294,2.0003,16.6474-14.9032c.7604-.6824,1.9534-.681,2.716.0031.3835.3462.5933.808.5917,1.3014-.0015.4884-.211.9433-.5901,1.2811l-16.561,14.832Z"/>
        <path class="cls-5" d="m649.0049,163.6968c-2.3597,0-4.5768-.8252-6.2429-2.3237l-40.0321-35.8975c-1.7653-1.5893-4.21-2.4018-6.7105-2.2291h0c-5.3022.3735-10.5008-1.3481-14.2649-4.7234-3.4315-3.088-5.321-7.194-5.321-11.5622,0-1.5861.2542-3.1641.7557-4.69l.2401-.7309,11.0883,9.9452c2.9515.4987,6.4421-1.5385,8.6184-3.8105,2.0151-2.1037,2.9953-4.3974,2.6479-6.174l-11.1959-10.0457.9011-.2376c1.6755-.4419,3.4154-.6659,5.1713-.6659,4.84,0,9.3901,1.6861,12.8121,4.7477,3.7752,3.3968,5.7024,8.0911,5.2885,12.88-.1859,2.2089.7102,4.3743,2.4584,5.9398l40.0288,35.9082c1.6868,1.5141,2.6157,3.528,2.6157,5.671,0,4.4106-3.9742,7.9988-8.859,7.9988Zm-52.3254-41.4781c2.5126,0,4.9291.895,6.7222,2.5093l40.0319,35.8973c1.4603,1.3135,3.4908,2.0665,5.5713,2.0665,4.3307,0,7.854-3.1374,7.854-6.9938,0-1.8538-.8103-3.6021-2.2818-4.923l-40.0284-35.9077c-1.9848-1.7775-3.0015-4.2465-2.789-6.7736.3867-4.4731-1.4206-8.8635-4.9582-12.0465-3.2363-2.8956-7.5485-4.4907-12.1409-4.4907-1.3493,0-2.6884.1391-3.9929.414l10.0245,8.9946.0367.1518c.5143,2.1305-.5574,4.8419-2.8669,7.253-2.3983,2.5037-6.3189,4.7349-9.671,4.0772l-.1358-.0267-10.1341-9.0894c-.3205,1.1898-.4825,2.4075-.4825,3.6299,0,4.0795,1.7713,7.9202,4.9877,10.8146,3.2405,2.9057,7.6131,4.5161,12.1642,4.5163.4516,0,.9042-.0158,1.3584-.0478h.0007c.2438-.0169.4876-.0252.7301-.0252Z"/>
        <path class="cls-5" d="m617.7086,185.6644c-32.2541,0-58.4948-26.2404-58.4948-58.4945s26.2407-58.4948,58.4948-58.4948,58.4948,26.2407,58.4948,58.4948-26.2407,58.4945-58.4948,58.4945Zm0-115.4414c-31.4006,0-56.9469,25.5462-56.9469,56.9469s25.5462,56.9466,56.9469,56.9466,56.9469-25.5462,56.9469-56.9466-25.5462-56.9469-56.9469-56.9469Z"/>
      </g>
      <text class="cls-9" transform="translate(542.1147 265.4671) scale(1.14 1)"><tspan x="0" y="0">A team of experts</tspan><tspan x="12.082" y="20">at your service</tspan></text>
    </g>
    <g>
      <text class="cls-4" transform="translate(585.106 471.8442)"><tspan x="0" y="0">PRIN</tspan><tspan class="cls-1" x="47.7832" y="0">T</tspan><tspan x="59.6479" y="0"> </tspan><tspan x="-25.1855" y="22">SOLUTIONS</tspan></text>
      <g>
        <g>
          <path class="cls-5" d="m653.0992,397.1888h-13.5813v-1.486h5.149v-8.914h-55.228v8.914h5.149v1.486h-13.5804v-33.4951h6.9455v-7.6133h6.6349v1.486h-5.149v6.1273h55.228v-6.1273h-5.149v-1.486h6.6349v7.6133h6.9464v33.4951Zm-6.9464-1.486h5.4604v-30.5232h-69.1199v30.5232h5.4595v-10.4h58.1999v10.4Z"/>
          <rect class="cls-5" x="643.8016" y="368.104" width="4.3989" height="3.9341"/>
          <rect class="cls-5" x="630.1981" y="368.118" width="9.7644" height="3.9339"/>
          <polygon class="cls-5" points="640.2614 364.4367 638.7754 364.4367 638.7754 340.7942 595.3313 340.7942 595.3313 364.4367 593.8453 364.4367 593.8453 339.3082 640.2614 339.3082 640.2614 364.4367"/>
          <path class="cls-5" d="m640.2614,418.0251h-46.416v-26.6555h46.416v26.6555Zm-44.9301-1.486h43.4441v-23.6836h-43.4441v23.6836Z"/>
          <g>
            <rect class="cls-2" x="615.4357" y="398.477" width="3.2006" height="25.6759" transform="translate(204.1488 1027.3) rotate(-89.8539)"/>
            <rect class="cls-2" x="618.6797" y="388.1335" width="3.2015" height="19.256" transform="translate(220.9384 1017.0256) rotate(-89.8539)"/>
            <rect class="cls-2" x="615.4534" y="391.5177" width="3.2006" height="25.6759" transform="translate(211.1258 1020.3761) rotate(-89.8539)"/>
          </g>
        </g>
        <path class="cls-5" d="m617.7081,437.1614c-32.2541,0-58.4945-26.2407-58.4945-58.4948s26.2404-58.4948,58.4945-58.4948,58.4948,26.2407,58.4948,58.4948-26.2407,58.4948-58.4948,58.4948Zm0-115.4417c-31.4003,0-56.9466,25.5462-56.9466,56.9469s25.5462,56.9469,56.9466,56.9469,56.9469-25.5462,56.9469-56.9469-25.5462-56.9469-56.9469-56.9469Z"/>
      </g>
      <text class="cls-9" transform="translate(583.7225 517.2802) scale(1.14 1)"><tspan x="0" y="0">Turnkey</tspan><tspan x=".2373" y="20">printing</tspan></text>
    </g>
  </g>
  <g>
    <g>
      <text class="cls-4" transform="translate(845.0343 220.0308)"><tspan x="0" y="0">INTERNE</tspan><tspan class="cls-1" x="87.7832" y="0">T</tspan><tspan x="-10.0098" y="22">&amp; SECURIT</tspan><tspan class="cls-1" x="96.6699" y="22">Y</tspan></text>
      <g>
        <path class="cls-5" d="m894.9608,169.2116l-.3758-.2409c-2.7524-1.7638-5.2856-3.3324-7.7354-4.8493-14.8393-9.189-23.0135-14.2507-23.0135-28.2084v-40.2694h.6966c11.9854,0,18.7618-.4505,29.9732-10.1229l.455-.3925.455.3925c11.2123,9.6724,17.9885,10.1229,29.9732,10.1229h.6966v40.2694c0,13.9577-8.1742,19.0194-23.0135,28.2084-2.4498,1.5169-4.983,3.0856-7.7354,4.8493l-.3758.2409Zm-29.7316-72.1755v38.8768c0,13.1818,7.9399,18.0984,22.3539,27.024,2.3426,1.4505,4.7612,2.9482,7.3778,4.6203,2.6165-1.6721,5.0352-3.1698,7.3778-4.6203,14.414-8.9256,22.3539-13.8421,22.3539-27.024v-38.8768c-11.4151-.0217-18.6526-.6626-29.7316-10.0711-11.078,9.4084-18.3158,10.0494-29.7316,10.0711Z"/>
        <g>
          <polygon id="Fill-3" class="cls-3" points="893.108 137.5083 881.4377 125.974 885.6196 121.7234 893.108 129.0071 907.9235 113.6545 912.1084 117.902 893.108 137.5083"/>
          <path class="cls-2" d="m893.1186,138.4982l-12.6648-12.5173,5.155-5.2398,7.4835,7.279,14.8259-15.3633,5.164,5.2412-19.9637,20.6002Zm-10.6969-12.5311l10.6756,10.5512,18.0371-18.6124-3.2058-3.2537-14.805,15.3417-7.4932-7.2883-3.2087,3.2615Z"/>
        </g>
        <path class="cls-5" d="m894.9609,185.6647c-32.2541,0-58.4948-26.2407-58.4948-58.4948s26.2407-58.4948,58.4948-58.4948,58.4948,26.2407,58.4948,58.4948-26.2407,58.4948-58.4948,58.4948Zm0-115.4417c-31.4006,0-56.9469,25.5462-56.9469,56.9469s25.5462,56.9469,56.9469,56.9469,56.9469-25.5462,56.9469-56.9469-25.5462-56.9469-56.9469-56.9469Z"/>
      </g>
      <text class="cls-9" transform="translate(810.2771 265.4669) scale(1.14 1)"><tspan x="0" y="0">Solutions to protect</tspan><tspan x="24.6573" y="20">your network</tspan></text>
    </g>
    <g>
      <g>
        <g>
          <path class="cls-5" d="m915.0619,416.3632c-9.775,0-17.7277-7.9253-17.7277-17.6669s7.9527-17.6668,17.7277-17.6668,17.7268,7.9253,17.7268,17.6668-7.9521,17.6669-17.7268,17.6669Zm0-33.8954c-8.982,0-16.2895,7.2801-16.2895,16.2286s7.3075,16.2286,16.2895,16.2286,16.2886-7.2802,16.2886-16.2286-7.3069-16.2286-16.2886-16.2286Z"/>
          <path class="cls-5" d="m915.6399,368.8122c-2.3369-8.1618-8.7789-14.5811-16.9705-16.9135l-.3869,3.0811c6.7871,2.1012,12.1566,7.451,14.2653,14.2151l3.092-.3827Z"/>
          <path class="cls-5" d="m906.2358,369.9834l3.17-.3938c-1.8554-5.3811-6.1191-9.6299-11.5193-11.4787l-.3952,3.1588c3.9984,1.5651,7.1739,4.7294,8.7445,8.7137Z"/>
          <path class="cls-5" d="m886.2474,389.9022c-3.9984-1.566-7.1712-4.7266-8.7418-8.7119l-3.17.3947c1.8554,5.3802,6.1191,9.6299,11.5193,11.475l.3924-3.1579Z"/>
          <path class="cls-5" d="m891.8693,382.4678c-3.8069,0-6.904-3.0874-6.904-6.8823s3.0971-6.8823,6.904-6.8823,6.9032,3.0874,6.9032,6.8823-3.0968,6.8823-6.9032,6.8823Zm0-12.3265c-3.0139,0-5.4658,2.4423-5.4658,5.4441s2.4519,5.4441,5.4658,5.4441,5.4649-2.4423,5.4649-5.4441-2.4516-5.4441-5.4649-5.4441Z"/>
          <path class="cls-5" d="m891.8693,385.549c-5.5118,0-9.9961-4.4696-9.9961-9.9635s4.4842-9.9635,9.9961-9.9635,9.9962,4.4696,9.9962,9.9635-4.4842,9.9635-9.9962,9.9635Zm0-18.4888c-4.7188,0-8.5578,3.8244-8.5578,8.5253s3.839,8.5253,8.5578,8.5253,8.558-3.8244,8.558-8.5253-3.839-8.5253-8.558-8.5253Z"/>
          <path class="cls-5" d="m891.8693,410.2009c-19.1531,0-34.7352-15.5284-34.7352-34.6154s15.5821-34.6154,34.7352-34.6154,34.7343,15.5284,34.7343,34.6154c0,.8966-.0639,1.779-.135,2.6793l-.0855,1.0827-.9633-.5015c-1.8831-.9802-3.8638-1.6845-5.8868-2.0933l-.6094-.1232.0578-1.0633c-.0104-14.8868-12.1688-26.9946-27.1121-26.9946s-27.1121,12.1184-27.1121,27.0139,12.1528,27.0037,27.0936,27.014l1.0669-.055.1231.6074c.408,2.0166,1.1145,3.9889,2.0996,5.8621l.5084.9667-1.0888.085c-.9477.074-1.8043.1353-2.6907.1353Zm0-67.7926c-18.3601,0-33.297,14.8832-33.297,33.1772s14.9369,33.1772,33.297,33.1772c.5002,0,.9976-.0212,1.5134-.0537-.7098-1.5107-1.2532-3.076-1.6215-4.6714-15.6926-.0591-28.4421-12.7998-28.4421-28.4521,0-15.6886,12.8075-28.4522,28.5503-28.4522,15.7052,0,28.4894,12.7023,28.5501,28.3395,1.6015.3687,3.1742.9111,4.693,1.6185.032-.5082.053-1.0019.053-1.5059,0-18.294-14.9366-33.1772-33.2961-33.1772Z"/>
          <path class="cls-5" d="m885.4589,396.1912l-.3869,3.0821c-8.1879-2.3296-14.6299-8.7489-16.9705-16.9116l3.092-.3846c2.1087,6.7632,7.4773,12.1101,14.2653,14.2141Z"/>
          <g>
            <polygon id="Fill-3-2" data-name="Fill-3" class="cls-3" points="907.3305 400.2374 915.0619 409.4818 922.7925 400.2374 916.6075 400.2374 916.6075 390.9931 913.5155 390.9931 913.5155 400.2374 907.3305 400.2374"/>
            <path class="cls-2" d="m915.0619,410.6027l-9.2703-11.0844h7.0046v-9.2444h4.5302v9.2444h7.0048l-9.2694,11.0844Zm-6.1926-9.6462l6.1926,7.4042,6.1918-7.4042h-5.3654v-9.2444h-1.6538v9.2444h-5.3652Z"/>
          </g>
        </g>
        <path class="cls-5" d="m894.9614,436.8448c-15.54,0-30.1498-6.0516-41.1381-17.0401-10.9884-10.9883-17.0401-25.5981-17.0401-41.1381s6.0516-30.1498,17.0401-41.1381c10.9883-10.9884,25.5981-17.0401,41.1381-17.0401s30.1498,6.0516,41.1381,17.0401c10.9884,10.9883,17.0401,25.5981,17.0401,41.1381s-6.0516,30.1498-17.0401,41.1381c-10.9883,10.9884-25.5981,17.0401-41.1381,17.0401Zm0-115.1295c-31.4031,0-56.9514,25.5483-56.9514,56.9514s25.5483,56.9514,56.9514,56.9514,56.9514-25.5483,56.9514-56.9514-25.5483-56.9514-56.9514-56.9514Z"/>
      </g>
      <text class="cls-4" transform="translate(838.6628 471.8442)"><tspan x="0" y="0">SOFT</tspan><tspan class="cls-8" x="53.3301" y="0">W</tspan><tspan x="71.4746" y="0">ARE</tspan><tspan x="-1.4893" y="22">SOLUTIONS</tspan></text>
      <text class="cls-9" transform="translate(807.0888 517.2802) scale(1.14 1)"><tspan class="cls-12" x="0" y="0">T</tspan><tspan x="7.2463" y="0">ools for your digital</tspan><tspan x="21.5323" y="20">transformation</tspan></text>
    </g>
  </g>
</svg>